
<svg width="14px" height="20px" viewBox="45 0 14 20" version="1.1" xmlns="http://www.w3.org/2000/svg" xmlns:xlink="http://www.w3.org/1999/xlink">
    <!-- Generator: Sketch 41.2 (35397) - http://www.bohemiancoding.com/sketch -->
    <desc>Created with Sketch.</desc>
    <defs></defs>
    <g id="Group-23" stroke="none" stroke-width="1" fill="none" fill-rule="evenodd" transform="translate(45.000000, 0.000000)">
        <path d="M7.59765002,3.09947888 C9.04924929,4.00899995 10.4133628,4.86365576 11.8597793,5.77007124 C9.55654197,9.43879723 7.2800479,13.0648733 4.94737224,16.78039 C3.49826072,15.8681774 2.12004994,15.0006852 0.675499285,14.0911642 C2.99221191,10.4122933 5.258755,6.81333932 7.59765002,3.09947888" id="Fill-6" fill="#C59855"></path>
        <path d="M12.4553455,4.77980508 C11.0083071,3.86883474 9.65165676,3.01480005 8.23467862,2.12267024 C8.50625746,1.677537 8.71999622,1.29410131 8.96503911,0.931990598 C9.55608589,0.0587013072 10.0567446,-0.0591037205 10.9691251,0.467188688 C11.4753812,0.759320312 11.9606988,1.08706259 12.4582479,1.39430804 C13.7075105,2.16614837 13.8229834,2.65558788 13.038929,3.90237501 C12.8757744,4.16179452 12.6997664,4.41313952 12.4553455,4.77980508" id="Fill-8" fill="#C59855"></path>
        <path d="M0.0959376021,19.9137139 L0.0959376021,15.1106228 C1.56474377,16.0288395 2.85215186,16.833806 4.26311795,17.7157909 C2.78560468,18.4950846 1.46191697,19.1932192 0.0959376021,19.9137139" id="Fill-10" fill="#C59855"></path>
    </g>
</svg>