
<svg width="65px" height="40px" viewBox="707 4 65 40" version="1.1" xmlns="http://www.w3.org/2000/svg" xmlns:xlink="http://www.w3.org/1999/xlink">
    <!-- Generator: Sketch 41.2 (35397) - http://www.bohemiancoding.com/sketch -->
    <desc>Created with Sketch.</desc>
    <defs></defs>
    <g id="Group-21" stroke="none" stroke-width="1" fill="none" fill-rule="evenodd" transform="translate(707.000000, 4.000000)">
        <path d="M32.3573792,39.7873171 C23.8854519,39.7873171 15.8915925,37.8460976 9.85101865,34.3196341 C3.4989957,30.6139024 0,25.5803049 0,20.1433537 C0,14.7102439 3.4989957,9.67536585 9.85101865,5.96835366 C15.8915925,2.44317073 23.8854519,0.50195122 32.3573792,0.50195122 C40.8293066,0.50195122 48.8231659,2.44317073 54.8637398,5.96835366 C61.2157628,9.67536585 64.7147585,14.7102439 64.7147585,20.1433537 C64.7147585,25.5803049 61.2157628,30.6139024 54.8637398,34.3196341 C48.8231659,37.8460976 40.8293066,39.7873171 32.3573792,39.7873171 Z" id="Fill-1" fill="#061D32"></path>
        <path d="M13.9635562,8.16771951 C18.7467987,5.26741463 25.024484,3.62582927 31.7046179,3.51954878 L31.7046179,1.89332927 C15.0593955,2.07643902 1.62479005,10.0103415 1.33256624,19.8380854 L5.90176758,19.8380854 C6.06069632,15.364061 8.90859684,11.2319268 13.9635562,8.16771951" id="Fill-3" fill="#FEFEFE"></path>
        <path d="M58.8874567,19.8383415 L63.2349268,19.8383415 C62.9439847,10.0067561 49.4991258,2.0690122 32.8423682,1.89358537 L32.8423682,3.5172439 C39.6135017,3.58767073 45.9847499,5.23309756 50.8256681,8.16797561 C55.8806275,11.2321829 58.728528,15.3643171 58.8874567,19.8383415" id="Fill-5" fill="#FEFEFE"></path>
        <path d="M50.8257963,32.3012012 C45.984878,35.2373598 39.6136298,36.8815061 32.8424964,36.9519329 L32.8424964,38.4257744 C49.219847,38.2529085 62.4903969,30.589189 63.210703,20.9880915 L58.8683596,20.9880915 C58.5748541,25.3251037 55.7448972,29.3176646 50.8257963,32.3012012" id="Fill-7" fill="#FEFEFE"></path>
        <path d="M5.90804782,20.9879634 L1.3452549,20.9879634 C2.06556098,30.5865 15.3258575,38.246378 31.6916729,38.4256463 L31.6916729,36.9492439 C25.0102573,36.8416829 18.7338537,35.201378 13.9506112,32.3010732 C9.03151028,29.3175366 6.20155332,25.3249756 5.90804782,20.9879634" id="Fill-9" fill="#FEFEFE"></path>
        <polygon id="Fill-11" fill="#FEFEFE" points="14.3783089 25.2028171 14.3783089 9.63592683 23.7615132 9.63592683 24.0486102 13.8922683 18.7975533 13.8922683 18.7975533 15.923122 23.0770942 15.923122 23.0770942 20.1705 18.7680746 20.1705 18.7680746 25.2028171"></polygon>
        <polygon id="Fill-13" fill="#FEFEFE" points="50.6573831 25.1801524 45.9664218 17.1028354 50.2280191 9.65935976 45.5319311 9.65935976 43.585054 13.0116768 41.6689374 9.65935976 36.8087939 9.65935976 41.1549823 17.1553354 36.5511755 25.1891159 41.2728972 25.1891159 43.5235332 21.2541768 45.803648 25.1801524"></polygon>
        <path d="M32.6904888,20.5465793 L32.6904888,14.3285305 C32.6904888,13.6191402 32.0714357,12.9840183 31.3754816,12.9840183 C30.6782458,12.9840183 30.1168685,13.6191402 30.1168685,14.3285305 L30.1155868,20.5286524 C30.1155868,21.2380427 30.6782458,21.8129817 31.3754816,21.8129817 C32.0714357,21.8129817 32.6904888,21.2559695 32.6904888,20.5465793 M23.9301827,17.4388354 C23.9301827,13.2593232 27.2535878,9.87115244 31.3549747,9.87115244 C35.4563615,9.87115244 38.7810483,13.2593232 38.7810483,17.4388354 C38.7810483,21.619628 35.4563615,25.0077988 31.3549747,25.0077988 C27.2535878,25.0077988 23.9301827,21.619628 23.9301827,17.4388354" id="Fill-15" fill="#FEFEFE"></path>
        <path d="M16.3490253,30.4782988 C15.298045,30.4782988 14.0484036,30.2554939 14.0035447,29.2054939 L15.8581406,29.2054939 C15.8696758,29.3258598 15.9094079,29.4270183 15.9799005,29.5025671 C16.0798718,29.6050061 16.2285471,29.6549451 16.4284897,29.6549451 C16.7501923,29.6549451 16.986022,29.4859207 16.986022,29.2541524 C16.986022,29.0070183 16.6899531,28.937872 16.5938269,28.9148232 L15.1301444,28.567811 C14.4149651,28.3975061 14.0958259,28.0735427 14.0958259,27.51525 C14.0958259,26.6931768 14.945582,26.2219573 16.4284897,26.2219573 C17.8575667,26.2219573 18.6009431,26.6163476 18.6368302,27.3923232 L16.909121,27.3923232 C16.8783606,27.1631159 16.7078967,27.0465915 16.399011,27.0465915 C16.0029708,27.0465915 15.8632673,27.202811 15.8632673,27.3487866 C15.8632673,27.562628 16.0619283,27.6266524 16.2477724,27.6714695 C16.3656872,27.6996402 16.5143625,27.730372 16.6732912,27.7611037 C17.0539512,27.8366524 17.5256107,27.932689 17.8921722,28.0556159 C18.4996901,28.2592134 18.795759,28.5972622 18.795759,29.092811 C18.795759,30.29775 17.2615839,30.4782988 16.3490253,30.4782988" id="Fill-17" fill="#FEFEFE"></path>
        <path d="M22.4484285,28.1455061 L22.6086389,28.1455061 C22.9508484,28.1455061 23.4045643,28.0930061 23.4045643,27.635872 C23.4045643,27.21075 23.0405662,27.155689 22.7239904,27.155689 L22.4484285,27.155689 L22.4484285,28.1455061 Z M20.5079598,30.3697134 L20.5079598,26.3310549 L23.4737752,26.3310549 C24.5914032,26.3310549 25.2578785,26.8189207 25.2578785,27.635872 C25.2578785,28.4963598 24.5209106,28.9688598 23.1853965,28.9688598 L22.4484285,28.9688598 L22.4484285,30.3697134 L20.5079598,30.3697134 Z" id="Fill-19" fill="#FEFEFE"></path>
        <path d="M29.3597781,27.1839878 C28.9906533,27.1839878 28.7458517,27.3824634 28.7458517,28.3505122 C28.7458517,29.3172805 28.9906533,29.5170366 29.3597781,29.5170366 C29.7289029,29.5170366 29.9749861,29.3172805 29.9749861,28.3505122 C29.9749861,27.3824634 29.7289029,27.1839878 29.3597781,27.1839878 M29.3597781,30.4786829 C27.6897446,30.4786829 26.7323271,29.7027073 26.7323271,28.3505122 C26.7323271,26.9983171 27.6897446,26.2223415 29.3597781,26.2223415 C31.0298116,26.2223415 31.9872291,26.9983171 31.9872291,28.3505122 C31.9872291,29.7027073 31.0298116,30.4786829 29.3597781,30.4786829" id="Fill-21" fill="#FEFEFE"></path>
        <path d="M35.6316958,28.0650915 L35.8649622,28.0650915 C36.4814519,28.0650915 36.6096203,27.803872 36.6096203,27.5849085 C36.6096203,27.2084451 36.2597207,27.1559451 35.8803424,27.1559451 L35.6316958,27.1559451 L35.6316958,28.0650915 Z M36.7365069,30.368689 C36.6557609,30.1471646 36.6006485,29.8270427 36.5506628,29.5414939 C36.5314376,29.4300915 36.5122123,29.32125 36.4942688,29.2264939 C36.436593,28.9460671 36.2276786,28.8897256 35.9303281,28.8897256 L35.6316958,28.8897256 L35.6316958,30.368689 L33.7348044,30.368689 L33.7348044,26.3325915 L36.7518871,26.3325915 C37.9361626,26.3325915 38.4642162,26.6373476 38.4642162,27.3249695 C38.4642162,27.8320427 38.1527671,28.1278354 37.4837284,28.2558841 L37.4337427,28.266128 L37.4337427,28.3839329 L37.4914185,28.3877744 C37.9566695,28.4185061 38.2194146,28.5734451 38.3142592,28.8756402 C38.3603998,29.0139329 38.3847518,29.1880793 38.4142305,29.3916768 C38.4539627,29.6695427 38.5026667,30.0139939 38.6257083,30.368689 L36.7365069,30.368689 Z" id="Fill-23" fill="#FEFEFE"></path>
        <polygon id="Fill-25" fill="#FEFEFE" points="41.2122736 30.3694573 41.2122736 27.3282988 39.9305901 27.3282988 39.9305901 26.3307988 44.4344256 26.3307988 44.4344256 27.3282988 43.1527422 27.3282988 43.1527422 30.3694573"></polygon>
        <path d="M48.1487441,30.4782988 C47.0964821,30.4782988 45.8481224,30.2554939 45.8019818,29.2054939 L47.6565777,29.2054939 C47.6681129,29.3271402 47.7091267,29.4270183 47.780901,29.5025671 C47.8795906,29.6050061 48.0282659,29.6549451 48.2282085,29.6549451 C48.549911,29.6549451 48.7844591,29.4859207 48.7844591,29.2541524 C48.7844591,29.0070183 48.4896719,28.937872 48.392264,28.9148232 L46.9298632,28.567811 C46.2159656,28.3975061 45.8955447,28.0735427 45.8955447,27.51525 C45.8955447,26.6931768 46.7453008,26.2219573 48.2282085,26.2219573 C49.6572855,26.2219573 50.3993802,26.6163476 50.436549,27.3923232 L48.7075581,27.3923232 C48.6780794,27.1631159 48.5063338,27.0465915 48.1987298,27.0465915 C47.8026896,27.0465915 47.6629861,27.202811 47.6629861,27.3487866 C47.6629861,27.562628 47.8616471,27.6266524 48.0462095,27.6714695 C48.165406,27.6996402 48.3140813,27.730372 48.47301,27.7611037 C48.8523883,27.8366524 49.3253295,27.932689 49.691891,28.0556159 C50.2994089,28.2592134 50.5954778,28.5972622 50.5954778,29.092811 C50.5954778,30.29775 49.0613027,30.4782988 48.1487441,30.4782988" id="Fill-27" fill="#FEFEFE"></path>
    </g>
</svg>