
<svg width="64px" height="61px" viewBox="84 26 64 61" version="1.1" xmlns="http://www.w3.org/2000/svg" xmlns:xlink="http://www.w3.org/1999/xlink">
    <!-- Generator: Sketch 41.2 (35397) - http://www.bohemiancoding.com/sketch -->
    <desc>Created with Sketch.</desc>
    <defs>
        <rect id="path-1" x="0" y="0" width="43.7142857" height="49.3432836" rx="2"></rect>
        <mask id="mask-2" maskContentUnits="userSpaceOnUse" maskUnits="objectBoundingBox" x="0" y="0" width="43.7142857" height="49.3432836" fill="white">
            <use xlink:href="#path-1"></use>
        </mask>
        <rect id="path-3" x="0" y="0" width="43.7142857" height="49.3432836" rx="2"></rect>
        <mask id="mask-4" maskContentUnits="userSpaceOnUse" maskUnits="objectBoundingBox" x="0" y="0" width="43.7142857" height="49.3432836" fill="white">
            <use xlink:href="#path-3"></use>
        </mask>
        <rect id="path-5" x="0" y="0" width="43.7142857" height="49.3432836" rx="2"></rect>
        <mask id="mask-6" maskContentUnits="userSpaceOnUse" maskUnits="objectBoundingBox" x="0" y="0" width="43.7142857" height="49.3432836" fill="white">
            <use xlink:href="#path-5"></use>
        </mask>
        <rect id="path-7" x="0" y="0" width="43.7142857" height="49.3432836" rx="2"></rect>
        <mask id="mask-8" maskContentUnits="userSpaceOnUse" maskUnits="objectBoundingBox" x="0" y="0" width="43.7142857" height="49.3432836" fill="white">
            <use xlink:href="#path-7"></use>
        </mask>
    </defs>
    <g id="Group-19" opacity="0.200000003" stroke="none" stroke-width="1" fill="none" fill-rule="evenodd" transform="translate(87.000000, 29.000000)">
        <g id="Group-17" transform="translate(16.285714, 0.000000)">
            <g id="Page-1">
                <use id="Rectangle-14" stroke="#C59855" mask="url(#mask-2)" stroke-width="6" fill="#FFFFFF" xlink:href="#path-1"></use>
                <path d="M12.2206286,10.6111881 C13.5303429,10.6111881 14.8400571,10.628203 16.1489143,10.6035313 C16.8183429,10.5916209 17.1989143,10.8817254 17.3180571,11.5163821 C17.3789143,11.8379642 17.4329143,12.167203 17.4346286,12.4938896 C17.4457714,14.3876507 17.4466286,16.2822627 17.4337714,18.1768746 C17.4320571,18.5248299 17.3797714,18.8787403 17.3009143,19.2181881 C17.1757714,19.7499045 16.8380571,20.0408597 16.2569143,20.0391582 C13.5492,20.0323522 10.8414857,20.033203 8.13377143,20.0383075 C7.53634286,20.0391582 7.18577143,19.7396955 7.01434286,19.1952179 C7.00148571,19.1535313 6.98948571,19.1084418 6.98948571,19.0659045 C6.98948571,16.563009 6.9612,14.0592627 7.01348571,11.5580687 C7.0272,10.9021433 7.54062857,10.5975761 8.22634286,10.6060836 C9.55748571,10.6230985 10.8886286,10.6111881 12.2206286,10.6111881" id="Fill-10" fill="#C59855"></path>
                <path d="M21.7525714,23.320997 C26.2397143,23.320997 30.726,23.3405642 35.2131429,23.3048328 C36.1662857,23.2980269 36.5802857,23.6842657 36.636,24.859997 C36.6874286,25.9319373 36.2185714,26.3913403 35.2037143,26.3913403 C26.274,26.3913403 17.3451429,26.3879373 8.41628571,26.3981463 C7.78285714,26.398997 7.25828571,26.2909522 7.03885714,25.6265194 C6.79628571,24.8948776 6.79971429,24.1581313 7.37485714,23.5949373 C7.58742857,23.3873552 8.02371429,23.3329075 8.35885714,23.3320567 C12.8237143,23.3158925 17.2877143,23.320997 21.7525714,23.320997" id="Fill-12" fill="#C59855"></path>
                <path d="M21.7593429,29.6759866 C26.2464857,29.6759866 30.7327714,29.6955537 35.2199143,29.6598224 C36.1713429,29.6521657 36.5853429,30.0528672 36.6359143,31.2217925 C36.6830571,32.2954343 36.2176286,32.7463299 35.1967714,32.7463299 C26.2679143,32.7463299 17.3382,32.7429269 8.40934286,32.7531358 C7.77334286,32.7539866 7.2522,32.6382851 7.0362,31.974703 C6.79705714,31.2430612 6.79877143,30.5063149 7.37991429,29.9456731 C7.5942,29.7389418 8.03048571,29.687897 8.36562857,29.6870463 C12.8304857,29.6708821 17.2944857,29.6759866 21.7593429,29.6759866" id="Fill-14" fill="#C59855"></path>
                <path d="M21.7538571,36.0309761 C26.241,36.0309761 30.7272857,36.0505433 35.2144286,36.0148119 C36.1667143,36.008006 36.5815714,36.3959463 36.6364286,37.5716776 C36.687,38.6436179 36.2181429,39.1013194 35.2024286,39.1013194 C26.2727143,39.1013194 17.3438571,39.0979164 8.415,39.1081254 C7.78071429,39.1089761 7.257,38.9992299 7.03757143,38.334797 C6.79671429,37.6031552 6.80014286,36.866409 7.37614286,36.3040657 C7.58871429,36.0964836 8.025,36.0428866 8.36014286,36.0420358 C12.825,36.0258716 17.289,36.0309761 21.7538571,36.0309761" id="Fill-16" fill="#C59855"></path>
                <path d="M28.7374286,13.6814463 C26.5611429,13.6814463 24.3857143,13.6839985 22.2094286,13.6805955 C21.2262857,13.678894 20.7428571,13.162491 20.7514286,12.1356403 C20.7591429,11.1011328 21.2297143,10.6119537 22.2317143,10.6119537 C26.5834286,10.6102522 30.9351429,10.6298194 35.2868571,10.5957896 C36.1791429,10.5889836 36.5931429,11.0398791 36.6377143,12.1560582 C36.6788571,13.2067299 36.2194286,13.6797448 35.2654286,13.6805955 C33.0891429,13.6831478 30.9137143,13.6814463 28.7374286,13.6814463" id="Fill-18" fill="#C59855"></path>
                <path d="M28.7674286,20.0365209 C26.5911429,20.0365209 24.4157143,20.0382224 22.2394286,20.0356701 C21.2322857,20.0348194 20.7651429,19.5549985 20.7514286,18.520491 C20.7368571,17.4732224 21.228,16.9670284 22.2685714,16.9661776 C26.598,16.9653269 30.9274286,16.9653269 35.2568571,16.9661776 C36.216,16.9670284 36.6754286,17.4255806 36.636,18.480506 C36.5897143,19.7430134 36.1097143,20.0688493 35.2285714,20.0509836 C33.0754286,20.0067448 30.9214286,20.0365209 28.7674286,20.0365209" id="Fill-20" fill="#C59855"></path>
            </g>
        </g>
        <g id="Group-17" transform="translate(0.000000, 7.656716)">
            <g id="Page-1">
                <use id="Rectangle-14" stroke="#C59855" mask="url(#mask-4)" stroke-width="6" fill="#FFFFFF" xlink:href="#path-3"></use>
                <path d="M12.2206286,10.6111881 C13.5303429,10.6111881 14.8400571,10.628203 16.1489143,10.6035313 C16.8183429,10.5916209 17.1989143,10.8817254 17.3180571,11.5163821 C17.3789143,11.8379642 17.4329143,12.167203 17.4346286,12.4938896 C17.4457714,14.3876507 17.4466286,16.2822627 17.4337714,18.1768746 C17.4320571,18.5248299 17.3797714,18.8787403 17.3009143,19.2181881 C17.1757714,19.7499045 16.8380571,20.0408597 16.2569143,20.0391582 C13.5492,20.0323522 10.8414857,20.033203 8.13377143,20.0383075 C7.53634286,20.0391582 7.18577143,19.7396955 7.01434286,19.1952179 C7.00148571,19.1535313 6.98948571,19.1084418 6.98948571,19.0659045 C6.98948571,16.563009 6.9612,14.0592627 7.01348571,11.5580687 C7.0272,10.9021433 7.54062857,10.5975761 8.22634286,10.6060836 C9.55748571,10.6230985 10.8886286,10.6111881 12.2206286,10.6111881" id="Fill-10" fill="#C59855"></path>
                <path d="M21.7525714,23.320997 C26.2397143,23.320997 30.726,23.3405642 35.2131429,23.3048328 C36.1662857,23.2980269 36.5802857,23.6842657 36.636,24.859997 C36.6874286,25.9319373 36.2185714,26.3913403 35.2037143,26.3913403 C26.274,26.3913403 17.3451429,26.3879373 8.41628571,26.3981463 C7.78285714,26.398997 7.25828571,26.2909522 7.03885714,25.6265194 C6.79628571,24.8948776 6.79971429,24.1581313 7.37485714,23.5949373 C7.58742857,23.3873552 8.02371429,23.3329075 8.35885714,23.3320567 C12.8237143,23.3158925 17.2877143,23.320997 21.7525714,23.320997" id="Fill-12" fill="#C59855"></path>
                <path d="M21.7593429,29.6759866 C26.2464857,29.6759866 30.7327714,29.6955537 35.2199143,29.6598224 C36.1713429,29.6521657 36.5853429,30.0528672 36.6359143,31.2217925 C36.6830571,32.2954343 36.2176286,32.7463299 35.1967714,32.7463299 C26.2679143,32.7463299 17.3382,32.7429269 8.40934286,32.7531358 C7.77334286,32.7539866 7.2522,32.6382851 7.0362,31.974703 C6.79705714,31.2430612 6.79877143,30.5063149 7.37991429,29.9456731 C7.5942,29.7389418 8.03048571,29.687897 8.36562857,29.6870463 C12.8304857,29.6708821 17.2944857,29.6759866 21.7593429,29.6759866" id="Fill-14" fill="#C59855"></path>
                <path d="M21.7538571,36.0309761 C26.241,36.0309761 30.7272857,36.0505433 35.2144286,36.0148119 C36.1667143,36.008006 36.5815714,36.3959463 36.6364286,37.5716776 C36.687,38.6436179 36.2181429,39.1013194 35.2024286,39.1013194 C26.2727143,39.1013194 17.3438571,39.0979164 8.415,39.1081254 C7.78071429,39.1089761 7.257,38.9992299 7.03757143,38.334797 C6.79671429,37.6031552 6.80014286,36.866409 7.37614286,36.3040657 C7.58871429,36.0964836 8.025,36.0428866 8.36014286,36.0420358 C12.825,36.0258716 17.289,36.0309761 21.7538571,36.0309761" id="Fill-16" fill="#C59855"></path>
                <path d="M28.7374286,13.6814463 C26.5611429,13.6814463 24.3857143,13.6839985 22.2094286,13.6805955 C21.2262857,13.678894 20.7428571,13.162491 20.7514286,12.1356403 C20.7591429,11.1011328 21.2297143,10.6119537 22.2317143,10.6119537 C26.5834286,10.6102522 30.9351429,10.6298194 35.2868571,10.5957896 C36.1791429,10.5889836 36.5931429,11.0398791 36.6377143,12.1560582 C36.6788571,13.2067299 36.2194286,13.6797448 35.2654286,13.6805955 C33.0891429,13.6831478 30.9137143,13.6814463 28.7374286,13.6814463" id="Fill-18" fill="#C59855"></path>
                <path d="M28.7674286,20.0365209 C26.5911429,20.0365209 24.4157143,20.0382224 22.2394286,20.0356701 C21.2322857,20.0348194 20.7651429,19.5549985 20.7514286,18.520491 C20.7368571,17.4732224 21.228,16.9670284 22.2685714,16.9661776 C26.598,16.9653269 30.9274286,16.9653269 35.2568571,16.9661776 C36.216,16.9670284 36.6754286,17.4255806 36.636,18.480506 C36.5897143,19.7430134 36.1097143,20.0688493 35.2285714,20.0509836 C33.0754286,20.0067448 30.9214286,20.0365209 28.7674286,20.0365209" id="Fill-20" fill="#C59855"></path>
            </g>
        </g>
    </g>
    <g id="Group-19" stroke="none" stroke-width="1" fill="none" fill-rule="evenodd" transform="translate(84.000000, 26.000000)">
        <g id="Group-17" transform="translate(16.285714, 0.000000)">
            <g id="Page-1">
                <use id="Rectangle-14" stroke="#C59855" mask="url(#mask-6)" stroke-width="6" fill="#FFFFFF" xlink:href="#path-5"></use>
                <path d="M12.2206286,10.6111881 C13.5303429,10.6111881 14.8400571,10.628203 16.1489143,10.6035313 C16.8183429,10.5916209 17.1989143,10.8817254 17.3180571,11.5163821 C17.3789143,11.8379642 17.4329143,12.167203 17.4346286,12.4938896 C17.4457714,14.3876507 17.4466286,16.2822627 17.4337714,18.1768746 C17.4320571,18.5248299 17.3797714,18.8787403 17.3009143,19.2181881 C17.1757714,19.7499045 16.8380571,20.0408597 16.2569143,20.0391582 C13.5492,20.0323522 10.8414857,20.033203 8.13377143,20.0383075 C7.53634286,20.0391582 7.18577143,19.7396955 7.01434286,19.1952179 C7.00148571,19.1535313 6.98948571,19.1084418 6.98948571,19.0659045 C6.98948571,16.563009 6.9612,14.0592627 7.01348571,11.5580687 C7.0272,10.9021433 7.54062857,10.5975761 8.22634286,10.6060836 C9.55748571,10.6230985 10.8886286,10.6111881 12.2206286,10.6111881" id="Fill-10" fill="#C59855"></path>
                <path d="M21.7525714,23.320997 C26.2397143,23.320997 30.726,23.3405642 35.2131429,23.3048328 C36.1662857,23.2980269 36.5802857,23.6842657 36.636,24.859997 C36.6874286,25.9319373 36.2185714,26.3913403 35.2037143,26.3913403 C26.274,26.3913403 17.3451429,26.3879373 8.41628571,26.3981463 C7.78285714,26.398997 7.25828571,26.2909522 7.03885714,25.6265194 C6.79628571,24.8948776 6.79971429,24.1581313 7.37485714,23.5949373 C7.58742857,23.3873552 8.02371429,23.3329075 8.35885714,23.3320567 C12.8237143,23.3158925 17.2877143,23.320997 21.7525714,23.320997" id="Fill-12" fill="#C59855"></path>
                <path d="M21.7593429,29.6759866 C26.2464857,29.6759866 30.7327714,29.6955537 35.2199143,29.6598224 C36.1713429,29.6521657 36.5853429,30.0528672 36.6359143,31.2217925 C36.6830571,32.2954343 36.2176286,32.7463299 35.1967714,32.7463299 C26.2679143,32.7463299 17.3382,32.7429269 8.40934286,32.7531358 C7.77334286,32.7539866 7.2522,32.6382851 7.0362,31.974703 C6.79705714,31.2430612 6.79877143,30.5063149 7.37991429,29.9456731 C7.5942,29.7389418 8.03048571,29.687897 8.36562857,29.6870463 C12.8304857,29.6708821 17.2944857,29.6759866 21.7593429,29.6759866" id="Fill-14" fill="#C59855"></path>
                <path d="M21.7538571,36.0309761 C26.241,36.0309761 30.7272857,36.0505433 35.2144286,36.0148119 C36.1667143,36.008006 36.5815714,36.3959463 36.6364286,37.5716776 C36.687,38.6436179 36.2181429,39.1013194 35.2024286,39.1013194 C26.2727143,39.1013194 17.3438571,39.0979164 8.415,39.1081254 C7.78071429,39.1089761 7.257,38.9992299 7.03757143,38.334797 C6.79671429,37.6031552 6.80014286,36.866409 7.37614286,36.3040657 C7.58871429,36.0964836 8.025,36.0428866 8.36014286,36.0420358 C12.825,36.0258716 17.289,36.0309761 21.7538571,36.0309761" id="Fill-16" fill="#C59855"></path>
                <path d="M28.7374286,13.6814463 C26.5611429,13.6814463 24.3857143,13.6839985 22.2094286,13.6805955 C21.2262857,13.678894 20.7428571,13.162491 20.7514286,12.1356403 C20.7591429,11.1011328 21.2297143,10.6119537 22.2317143,10.6119537 C26.5834286,10.6102522 30.9351429,10.6298194 35.2868571,10.5957896 C36.1791429,10.5889836 36.5931429,11.0398791 36.6377143,12.1560582 C36.6788571,13.2067299 36.2194286,13.6797448 35.2654286,13.6805955 C33.0891429,13.6831478 30.9137143,13.6814463 28.7374286,13.6814463" id="Fill-18" fill="#C59855"></path>
                <path d="M28.7674286,20.0365209 C26.5911429,20.0365209 24.4157143,20.0382224 22.2394286,20.0356701 C21.2322857,20.0348194 20.7651429,19.5549985 20.7514286,18.520491 C20.7368571,17.4732224 21.228,16.9670284 22.2685714,16.9661776 C26.598,16.9653269 30.9274286,16.9653269 35.2568571,16.9661776 C36.216,16.9670284 36.6754286,17.4255806 36.636,18.480506 C36.5897143,19.7430134 36.1097143,20.0688493 35.2285714,20.0509836 C33.0754286,20.0067448 30.9214286,20.0365209 28.7674286,20.0365209" id="Fill-20" fill="#C59855"></path>
            </g>
        </g>
        <g id="Group-17" transform="translate(0.000000, 7.656716)">
            <g id="Page-1">
                <use id="Rectangle-14" stroke="#C59855" mask="url(#mask-8)" stroke-width="6" fill="#FFFFFF" xlink:href="#path-7"></use>
                <path d="M12.2206286,10.6111881 C13.5303429,10.6111881 14.8400571,10.628203 16.1489143,10.6035313 C16.8183429,10.5916209 17.1989143,10.8817254 17.3180571,11.5163821 C17.3789143,11.8379642 17.4329143,12.167203 17.4346286,12.4938896 C17.4457714,14.3876507 17.4466286,16.2822627 17.4337714,18.1768746 C17.4320571,18.5248299 17.3797714,18.8787403 17.3009143,19.2181881 C17.1757714,19.7499045 16.8380571,20.0408597 16.2569143,20.0391582 C13.5492,20.0323522 10.8414857,20.033203 8.13377143,20.0383075 C7.53634286,20.0391582 7.18577143,19.7396955 7.01434286,19.1952179 C7.00148571,19.1535313 6.98948571,19.1084418 6.98948571,19.0659045 C6.98948571,16.563009 6.9612,14.0592627 7.01348571,11.5580687 C7.0272,10.9021433 7.54062857,10.5975761 8.22634286,10.6060836 C9.55748571,10.6230985 10.8886286,10.6111881 12.2206286,10.6111881" id="Fill-10" fill="#C59855"></path>
                <path d="M21.7525714,23.320997 C26.2397143,23.320997 30.726,23.3405642 35.2131429,23.3048328 C36.1662857,23.2980269 36.5802857,23.6842657 36.636,24.859997 C36.6874286,25.9319373 36.2185714,26.3913403 35.2037143,26.3913403 C26.274,26.3913403 17.3451429,26.3879373 8.41628571,26.3981463 C7.78285714,26.398997 7.25828571,26.2909522 7.03885714,25.6265194 C6.79628571,24.8948776 6.79971429,24.1581313 7.37485714,23.5949373 C7.58742857,23.3873552 8.02371429,23.3329075 8.35885714,23.3320567 C12.8237143,23.3158925 17.2877143,23.320997 21.7525714,23.320997" id="Fill-12" fill="#C59855"></path>
                <path d="M21.7593429,29.6759866 C26.2464857,29.6759866 30.7327714,29.6955537 35.2199143,29.6598224 C36.1713429,29.6521657 36.5853429,30.0528672 36.6359143,31.2217925 C36.6830571,32.2954343 36.2176286,32.7463299 35.1967714,32.7463299 C26.2679143,32.7463299 17.3382,32.7429269 8.40934286,32.7531358 C7.77334286,32.7539866 7.2522,32.6382851 7.0362,31.974703 C6.79705714,31.2430612 6.79877143,30.5063149 7.37991429,29.9456731 C7.5942,29.7389418 8.03048571,29.687897 8.36562857,29.6870463 C12.8304857,29.6708821 17.2944857,29.6759866 21.7593429,29.6759866" id="Fill-14" fill="#C59855"></path>
                <path d="M21.7538571,36.0309761 C26.241,36.0309761 30.7272857,36.0505433 35.2144286,36.0148119 C36.1667143,36.008006 36.5815714,36.3959463 36.6364286,37.5716776 C36.687,38.6436179 36.2181429,39.1013194 35.2024286,39.1013194 C26.2727143,39.1013194 17.3438571,39.0979164 8.415,39.1081254 C7.78071429,39.1089761 7.257,38.9992299 7.03757143,38.334797 C6.79671429,37.6031552 6.80014286,36.866409 7.37614286,36.3040657 C7.58871429,36.0964836 8.025,36.0428866 8.36014286,36.0420358 C12.825,36.0258716 17.289,36.0309761 21.7538571,36.0309761" id="Fill-16" fill="#C59855"></path>
                <path d="M28.7374286,13.6814463 C26.5611429,13.6814463 24.3857143,13.6839985 22.2094286,13.6805955 C21.2262857,13.678894 20.7428571,13.162491 20.7514286,12.1356403 C20.7591429,11.1011328 21.2297143,10.6119537 22.2317143,10.6119537 C26.5834286,10.6102522 30.9351429,10.6298194 35.2868571,10.5957896 C36.1791429,10.5889836 36.5931429,11.0398791 36.6377143,12.1560582 C36.6788571,13.2067299 36.2194286,13.6797448 35.2654286,13.6805955 C33.0891429,13.6831478 30.9137143,13.6814463 28.7374286,13.6814463" id="Fill-18" fill="#C59855"></path>
                <path d="M28.7674286,20.0365209 C26.5911429,20.0365209 24.4157143,20.0382224 22.2394286,20.0356701 C21.2322857,20.0348194 20.7651429,19.5549985 20.7514286,18.520491 C20.7368571,17.4732224 21.228,16.9670284 22.2685714,16.9661776 C26.598,16.9653269 30.9274286,16.9653269 35.2568571,16.9661776 C36.216,16.9670284 36.6754286,17.4255806 36.636,18.480506 C36.5897143,19.7430134 36.1097143,20.0688493 35.2285714,20.0509836 C33.0754286,20.0067448 30.9214286,20.0365209 28.7674286,20.0365209" id="Fill-20" fill="#C59855"></path>
            </g>
        </g>
    </g>
</svg>