
<svg width="61px" height="53px" viewBox="85 30 61 53" version="1.1" xmlns="http://www.w3.org/2000/svg" xmlns:xlink="http://www.w3.org/1999/xlink">
    <!-- Generator: Sketch 41.2 (35397) - http://www.bohemiancoding.com/sketch -->
    <desc>Created with Sketch.</desc>
    <defs></defs>
    <g id="Page-1" stroke="none" stroke-width="1" fill="none" fill-rule="evenodd" transform="translate(85.000000, 30.000000)">
        <path d="M0,27.7066394 C0.754,25.9650056 1.26619718,24.0591746 2.31428169,22.5168648 C4.11309859,19.871738 6.8448169,18.4519634 10.0397183,18.2755127 C12.8996901,18.1170338 15.776,18.2420197 18.7764789,18.2420197 C19.1367324,20.9132873 19.9797746,23.3844141 22.0555211,25.4078789 C15.1535211,28.1273437 12.3605352,33.2795408 12.9078592,40.4454 C8.39202817,40.2999915 4.1743662,39.2764141 0,38.017569 L0,27.7066394" id="Fill-4" fill="#C59855"></path>
        <path d="M58,38.0177324 C55.2887042,38.750493 52.5912958,39.5428873 49.8587606,40.1890563 C48.6652676,40.4708873 47.3998873,40.4545493 45.9253803,40.597507 C46.4980282,33.4242958 43.8079718,28.2010282 36.8520563,25.4399014 C38.702338,23.4335915 39.8198592,21.0874507 40.0077465,18.0159014 C43.2990423,18.2046056 46.6524225,18.0044648 49.8228169,18.6743239 C54.2790141,19.6145775 56.9110704,22.7441268 57.7851549,27.2624085 C57.8153803,27.4184366 57.9264789,27.5589437 58,27.7068028 L58,38.0177324 Z" id="Fill-6" fill="#C59855"></path>
        <path d="M43.854862,41.3831211 C43.854862,42.8429239 43.8132,44.3051775 43.8728338,45.7633465 C43.9022423,46.4814028 43.6383831,46.8138817 42.9962986,47.0924451 C39.6845803,48.5293746 36.1800732,49.1199944 32.6257352,49.3225859 C26.9204958,49.6477127 21.3443268,48.7875155 15.9062141,47.0565014 C15.5402423,46.9405014 14.9929183,46.537769 14.9904676,46.264107 C14.9659606,42.9605577 14.7037352,39.6137127 15.1399606,36.3624451 C15.8702704,30.9186141 19.6786648,27.4026704 25.1853972,27.0669239 C28.7536225,26.8488113 32.4394817,26.8684169 35.933369,27.521938 C40.6779324,28.409093 43.7723549,32.7876845 43.8475099,37.6466141 C43.8662986,38.8915718 43.8499606,40.1373465 43.8499606,41.3831211 L43.854862,41.3831211 Z" id="Fill-8" fill="#C59855"></path>
        <path d="M29.4232366,26.3923268 C24.7767014,26.381707 20.8784479,22.4654817 20.9168423,17.8491718 C20.9568704,13.1650592 24.7889549,9.39097465 29.4910394,9.40567887 C34.1187859,9.4212 37.8887859,13.2116225 37.8920535,17.8532563 C37.8953211,22.5659606 34.0893775,26.4037634 29.4232366,26.3923268 Z" id="Fill-10" fill="#C59855"></path>
        <path d="M6.01827606,9.05629014 C6.0436,4.51431831 9.74988169,0.702656338 14.2060789,0.637304225 C18.8460789,0.569501408 22.8243887,4.1042338 22.9060789,8.45831831 C22.9175155,9.04485352 22.6087268,9.78333239 22.1961915,10.2040366 C20.7502761,11.6818113 19.7822479,13.3842338 19.1614028,15.346431 C18.9833183,15.9068254 18.4964451,16.5538113 17.9801634,16.7939803 C12.3966423,19.3949944 5.9839662,15.2206282 6.01827606,9.05629014" id="Fill-12" fill="#C59855"></path>
        <path d="M44.2905972,0.636160563 C47.0958366,0.838752113 49.7989634,2.37861127 51.2097521,5.62824507 C52.6466817,8.93914648 52.1957521,12.1381324 49.7180901,14.8265549 C47.3262028,17.4226676 44.3240901,18.1186676 40.9184282,17.1726958 C40.2003718,16.9725549 39.8662592,16.5894282 39.7412732,15.8770901 C39.2813577,13.2687239 37.9359211,11.1668366 35.8413859,9.59266761 C35.1421183,9.0674 34.9746535,8.5437662 35.1110761,7.75627324 C35.8274986,3.59252676 39.3581465,0.620639437 44.2905972,0.636160563" id="Fill-14" fill="#C59855"></path>
    </g>
    <g id="Page-1" opacity="0.200000003" stroke="none" stroke-width="1" fill="none" fill-rule="evenodd" transform="translate(88.000000, 33.000000)">
        <path d="M0,27.7066394 C0.754,25.9650056 1.26619718,24.0591746 2.31428169,22.5168648 C4.11309859,19.871738 6.8448169,18.4519634 10.0397183,18.2755127 C12.8996901,18.1170338 15.776,18.2420197 18.7764789,18.2420197 C19.1367324,20.9132873 19.9797746,23.3844141 22.0555211,25.4078789 C15.1535211,28.1273437 12.3605352,33.2795408 12.9078592,40.4454 C8.39202817,40.2999915 4.1743662,39.2764141 0,38.017569 L0,27.7066394" id="Fill-4" fill="#C59855"></path>
        <path d="M58,38.0177324 C55.2887042,38.750493 52.5912958,39.5428873 49.8587606,40.1890563 C48.6652676,40.4708873 47.3998873,40.4545493 45.9253803,40.597507 C46.4980282,33.4242958 43.8079718,28.2010282 36.8520563,25.4399014 C38.702338,23.4335915 39.8198592,21.0874507 40.0077465,18.0159014 C43.2990423,18.2046056 46.6524225,18.0044648 49.8228169,18.6743239 C54.2790141,19.6145775 56.9110704,22.7441268 57.7851549,27.2624085 C57.8153803,27.4184366 57.9264789,27.5589437 58,27.7068028 L58,38.0177324 Z" id="Fill-6" fill="#C59855"></path>
        <path d="M43.854862,41.3831211 C43.854862,42.8429239 43.8132,44.3051775 43.8728338,45.7633465 C43.9022423,46.4814028 43.6383831,46.8138817 42.9962986,47.0924451 C39.6845803,48.5293746 36.1800732,49.1199944 32.6257352,49.3225859 C26.9204958,49.6477127 21.3443268,48.7875155 15.9062141,47.0565014 C15.5402423,46.9405014 14.9929183,46.537769 14.9904676,46.264107 C14.9659606,42.9605577 14.7037352,39.6137127 15.1399606,36.3624451 C15.8702704,30.9186141 19.6786648,27.4026704 25.1853972,27.0669239 C28.7536225,26.8488113 32.4394817,26.8684169 35.933369,27.521938 C40.6779324,28.409093 43.7723549,32.7876845 43.8475099,37.6466141 C43.8662986,38.8915718 43.8499606,40.1373465 43.8499606,41.3831211 L43.854862,41.3831211 Z" id="Fill-8" fill="#C59855"></path>
        <path d="M29.4232366,26.3923268 C24.7767014,26.381707 20.8784479,22.4654817 20.9168423,17.8491718 C20.9568704,13.1650592 24.7889549,9.39097465 29.4910394,9.40567887 C34.1187859,9.4212 37.8887859,13.2116225 37.8920535,17.8532563 C37.8953211,22.5659606 34.0893775,26.4037634 29.4232366,26.3923268 Z" id="Fill-10" fill="#C59855"></path>
        <path d="M6.01827606,9.05629014 C6.0436,4.51431831 9.74988169,0.702656338 14.2060789,0.637304225 C18.8460789,0.569501408 22.8243887,4.1042338 22.9060789,8.45831831 C22.9175155,9.04485352 22.6087268,9.78333239 22.1961915,10.2040366 C20.7502761,11.6818113 19.7822479,13.3842338 19.1614028,15.346431 C18.9833183,15.9068254 18.4964451,16.5538113 17.9801634,16.7939803 C12.3966423,19.3949944 5.9839662,15.2206282 6.01827606,9.05629014" id="Fill-12" fill="#C59855"></path>
        <path d="M44.2905972,0.636160563 C47.0958366,0.838752113 49.7989634,2.37861127 51.2097521,5.62824507 C52.6466817,8.93914648 52.1957521,12.1381324 49.7180901,14.8265549 C47.3262028,17.4226676 44.3240901,18.1186676 40.9184282,17.1726958 C40.2003718,16.9725549 39.8662592,16.5894282 39.7412732,15.8770901 C39.2813577,13.2687239 37.9359211,11.1668366 35.8413859,9.59266761 C35.1421183,9.0674 34.9746535,8.5437662 35.1110761,7.75627324 C35.8274986,3.59252676 39.3581465,0.620639437 44.2905972,0.636160563" id="Fill-14" fill="#C59855"></path>
    </g>
</svg>