
<svg width="58px" height="61px" viewBox="0 0 58 61" version="1.1" xmlns="http://www.w3.org/2000/svg" xmlns:xlink="http://www.w3.org/1999/xlink">
    <!-- Generator: Sketch 41.2 (35397) - http://www.bohemiancoding.com/sketch -->
    <desc>Created with Sketch.</desc>
    <defs></defs>
    <g id="Group-20" opacity="0.200000003" stroke="none" stroke-width="1" fill="none" fill-rule="evenodd" transform="translate(3.000000, 3.000000)">
        <path d="M36.6846868,6.66139054 C35.5973867,8.42411814 34.7498431,10.0834299 33.6093674,11.5088914 C33.1424488,12.0925853 32.0448867,12.4317148 31.2304612,12.4391681 C23.6953922,12.508112 16.1589239,12.5295405 8.62432146,12.4461557 C6.74871714,12.425193 6.04857238,12.9287629 6.06349885,14.9169557 C6.1479267,26.1673876 6.09195244,37.4182853 6.11620795,48.6691831 C6.12273828,51.7115652 6.17404802,51.7166894 9.23350804,51.7171552 C20.2655692,51.7194844 31.2976303,51.7199503 42.3296914,51.7171552 C45.3816882,51.7162236 45.3863527,51.709236 45.3877521,48.5690281 C45.3914837,42.8275858 45.2823339,37.0824168 45.4553876,31.3460987 C45.5057645,29.6784019 46.1284782,27.9212643 46.8901946,26.406362 C48.0222741,24.1535738 49.5111896,22.0801329 51.185753,19.3871286 C51.2963022,20.4632123 51.3760655,20.8824657 51.3769984,21.301719 C51.4007875,30.6906659 51.4334391,40.0800786 51.4264423,49.4690254 C51.4222443,54.9109344 48.5101831,57.7581308 43.0275039,57.7525408 C31.6064216,57.740429 20.1853394,57.7227272 8.76425712,57.7036279 C2.55997633,57.6933795 0.119031939,55.28966 0.114833869,49.1559829 C0.10643773,37.6730982 0.279025046,26.1864869 0.0369363511,14.7082607 C-0.0717470129,9.56308986 3.27084949,6.29105005 8.31086558,6.43219869 C17.0824993,6.67769484 25.8667273,6.46899982 34.6458242,6.46434145 C35.2442824,6.46387561 35.843207,6.57660819 36.6846868,6.66139054" id="Fill-4" fill="#C59855"></path>
        <path d="M41.0947125,6.97382749 C44.3608109,9.02024989 47.4300664,10.9432255 50.6845034,12.9826603 C45.5022194,21.2372938 40.3801078,29.3959648 35.1315875,37.7558775 C31.8710866,35.7033992 28.7701124,33.7515417 25.5198734,31.7051193 C30.7324768,23.4276598 35.8321988,15.3300135 41.0947125,6.97382749" id="Fill-6" fill="#C59855"></path>
        <path d="M52.0245273,10.7545614 C48.7686909,8.70487817 45.7162277,6.78330011 42.5280269,4.77600803 C43.1390793,3.77445826 43.6199915,2.91172794 44.171338,2.09697885 C45.5011932,0.132077941 46.6276753,-0.132983371 48.6805315,1.05117455 C49.8196078,1.7084707 50.9115724,2.44589084 52.0310577,3.1371931 C54.8418987,4.87383382 55.1017125,5.97507274 53.3375903,8.78034378 C52.9704924,9.36403767 52.5744745,9.92956391 52.0245273,10.7545614" id="Fill-8" fill="#C59855"></path>
        <path d="M24.2158596,44.8058562 L24.2158596,33.9989012 C27.5206735,36.0648888 30.4173417,37.8760635 33.5920154,39.8605295 C30.2676105,41.6139404 27.2893132,43.1847431 24.2158596,44.8058562" id="Fill-10" fill="#C59855"></path>
    </g>
    <g id="Group-20" stroke="none" stroke-width="1" fill="none" fill-rule="evenodd">
        <path d="M36.6846868,6.66139054 C35.5973867,8.42411814 34.7498431,10.0834299 33.6093674,11.5088914 C33.1424488,12.0925853 32.0448867,12.4317148 31.2304612,12.4391681 C23.6953922,12.508112 16.1589239,12.5295405 8.62432146,12.4461557 C6.74871714,12.425193 6.04857238,12.9287629 6.06349885,14.9169557 C6.1479267,26.1673876 6.09195244,37.4182853 6.11620795,48.6691831 C6.12273828,51.7115652 6.17404802,51.7166894 9.23350804,51.7171552 C20.2655692,51.7194844 31.2976303,51.7199503 42.3296914,51.7171552 C45.3816882,51.7162236 45.3863527,51.709236 45.3877521,48.5690281 C45.3914837,42.8275858 45.2823339,37.0824168 45.4553876,31.3460987 C45.5057645,29.6784019 46.1284782,27.9212643 46.8901946,26.406362 C48.0222741,24.1535738 49.5111896,22.0801329 51.185753,19.3871286 C51.2963022,20.4632123 51.3760655,20.8824657 51.3769984,21.301719 C51.4007875,30.6906659 51.4334391,40.0800786 51.4264423,49.4690254 C51.4222443,54.9109344 48.5101831,57.7581308 43.0275039,57.7525408 C31.6064216,57.740429 20.1853394,57.7227272 8.76425712,57.7036279 C2.55997633,57.6933795 0.119031939,55.28966 0.114833869,49.1559829 C0.10643773,37.6730982 0.279025046,26.1864869 0.0369363511,14.7082607 C-0.0717470129,9.56308986 3.27084949,6.29105005 8.31086558,6.43219869 C17.0824993,6.67769484 25.8667273,6.46899982 34.6458242,6.46434145 C35.2442824,6.46387561 35.843207,6.57660819 36.6846868,6.66139054" id="Fill-4" fill="#C59855"></path>
        <path d="M41.0947125,6.97382749 C44.3608109,9.02024989 47.4300664,10.9432255 50.6845034,12.9826603 C45.5022194,21.2372938 40.3801078,29.3959648 35.1315875,37.7558775 C31.8710866,35.7033992 28.7701124,33.7515417 25.5198734,31.7051193 C30.7324768,23.4276598 35.8321988,15.3300135 41.0947125,6.97382749" id="Fill-6" fill="#C59855"></path>
        <path d="M52.0245273,10.7545614 C48.7686909,8.70487817 45.7162277,6.78330011 42.5280269,4.77600803 C43.1390793,3.77445826 43.6199915,2.91172794 44.171338,2.09697885 C45.5011932,0.132077941 46.6276753,-0.132983371 48.6805315,1.05117455 C49.8196078,1.7084707 50.9115724,2.44589084 52.0310577,3.1371931 C54.8418987,4.87383382 55.1017125,5.97507274 53.3375903,8.78034378 C52.9704924,9.36403767 52.5744745,9.92956391 52.0245273,10.7545614" id="Fill-8" fill="#C59855"></path>
        <path d="M24.2158596,44.8058562 L24.2158596,33.9989012 C27.5206735,36.0648888 30.4173417,37.8760635 33.5920154,39.8605295 C30.2676105,41.6139404 27.2893132,43.1847431 24.2158596,44.8058562" id="Fill-10" fill="#C59855"></path>
    </g>
</svg>