<svg width="196px" height="90px" viewBox="642 171 196 90" version="1.1" xmlns="http://www.w3.org/2000/svg" xmlns:xlink="http://www.w3.org/1999/xlink">
    <!-- Generator: Sketch 42 (36781) - http://www.bohemiancoding.com/sketch -->
    <desc>Created with Sketch.</desc>
    <defs></defs>
    <g id="Media-Academy-Logo" stroke="none" stroke-width="1" fill="none" fill-rule="evenodd" transform="translate(642.000000, 171.000000)">
        <polygon id="Fill-31" fill="#061D32" points="95.9721751 35.4729554 95.9721751 57.7556878 90.3047416 57.7556878 90.3047416 46.7719512 90.2131262 46.7719512 86.6273992 53.7367953 82.9780505 53.7367953 79.3923236 46.7401604 79.3007081 46.7401604 79.3007081 57.7556878 73.6332746 57.7556878 73.6332746 35.4729554 79.4203172 35.4729554 84.7569172 46.4884828 84.8790711 46.4884828 90.1545941 35.4729554"></polygon>
        <polygon id="Fill-32" fill="#061D32" points="106.398013 35.4729554 120.628946 35.4729554 120.628946 40.7767279 111.945838 40.7767279 111.945838 44.1333111 118.727926 44.1333111 118.727926 49.3125695 111.945838 49.3125695 111.945838 52.4519153 121.26262 52.4519153 121.26262 57.7556878 106.398013 57.7556878"></polygon>
        <path d="M138.413796,52.4511206 C141.668689,52.4511206 143.808928,49.8469206 143.808928,46.6439931 C143.808928,43.3192006 141.638151,40.7759331 138.836245,40.7759331 L136.543314,40.7759331 L136.543314,52.4511206 L138.413796,52.4511206 Z M130.995489,35.4721606 L138.714091,35.4721606 C145.468185,35.4721606 149.807195,40.0553406 149.807195,46.6439931 C149.807195,53.2035039 145.737942,57.7548931 138.805706,57.7548931 L130.995489,57.7548931 L130.995489,35.4721606 Z" id="Fill-33" fill="#061D32"></path>
        <polygon id="Fill-34" fill="#061D32" points="159.696319 57.7580721 165.5139 57.7580721 165.5139 35.4753397 159.696319 35.4753397"></polygon>
        <path d="M186.91756,49.1554697 L184.988545,42.7231223 L184.930013,42.7231223 L182.998454,49.1554697 L186.91756,49.1554697 Z M188.396131,54.143983 L181.522428,54.143983 L180.435767,57.7548931 L174.437499,57.7548931 L182.214633,35.4721606 L187.701381,35.4721606 L195.450521,57.7548931 L189.480247,57.7548931 L188.396131,54.143983 Z" id="Fill-35" fill="#061D32"></path>
        <path d="M80.7057329,68.9158636 L78.6342057,63.029259 L78.6036673,63.029259 L76.5474094,68.9158636 L80.7057329,68.9158636 Z M81.1510857,70.1769005 L76.1020565,70.1769005 L75.0993763,73.0460241 L73.6335291,73.0460241 L77.9190963,61.2701656 L79.3035075,61.2701656 L83.622158,73.0460241 L82.1563108,73.0460241 L81.1510857,70.1769005 Z" id="Fill-36" fill="#BF8D43"></path>
        <path d="M88.8897919,67.2079005 C88.8897919,63.8566157 90.8976972,61.154394 94.5292318,61.154394 C96.0892393,61.154394 97.7154135,61.8193525 98.9420426,63.4115439 L97.9062791,64.306986 C97.0461118,63.1784111 95.8347519,62.5319972 94.5292318,62.5319972 C91.94873,62.5319972 90.337825,64.4712387 90.337825,67.2079005 C90.337825,70.0107933 92.1395955,71.751342 94.5292318,71.751342 C95.995079,71.751342 97.1097336,71.0228018 97.9062791,69.9948979 L98.9420426,70.9062354 C97.9546317,72.1831676 96.5193229,73.1289453 94.5292318,73.1289453 C91.4702937,73.1289453 88.8897919,71.0545927 88.8897919,67.2079005" id="Fill-37" fill="#BF8D43"></path>
        <path d="M111.521353,68.9158636 L109.449826,63.029259 L109.419287,63.029259 L107.363029,68.9158636 L111.521353,68.9158636 Z M111.966706,70.1769005 L106.917676,70.1769005 L105.914996,73.0460241 L104.449149,73.0460241 L108.734716,61.2701656 L110.119127,61.2701656 L114.435233,73.0460241 L112.971931,73.0460241 L111.966706,70.1769005 Z" id="Fill-38" fill="#BF8D43"></path>
        <path d="M124.101427,71.7351817 C126.824441,71.7351817 128.593128,69.827731 128.593128,67.1731955 C128.593128,64.4709738 126.809172,62.5820678 124.165048,62.5820678 L122.141874,62.5820678 L122.141874,71.7351817 L124.101427,71.7351817 Z M120.757463,61.2706955 L124.149779,61.2706955 C127.732961,61.2706955 130.010623,63.6920981 130.010623,67.1731955 C130.010623,70.6410468 127.799128,73.0439047 124.198132,73.0439047 L120.757463,73.0439047 L120.757463,61.2706955 Z" id="Fill-39" fill="#BF8D43"></path>
        <polygon id="Fill-40" fill="#BF8D43" points="136.841318 61.2712253 143.771009 61.2712253 143.771009 62.5984931 138.243544 62.5984931 138.243544 66.5273116 142.783598 66.5273116 142.783598 67.8545793 138.243544 67.8545793 138.243544 71.7198161 144.104388 71.7198161 144.104388 73.0444346 136.841318 73.0444346"></polygon>
        <polygon id="Fill-41" fill="#BF8D43" points="161.958712 61.2712253 161.958712 73.0444346 160.571756 73.0444346 160.571756 64.0237826 160.541217 64.0237826 156.86133 70.6733675 155.922272 70.6733675 152.242384 64.0237826 152.209301 64.0237826 152.209301 73.0444346 150.82489 73.0444346 150.82489 61.2712253 152.227115 61.2712253 156.382894 68.8824833 156.415977 68.8824833 160.571756 61.2712253"></polygon>
        <polygon id="Fill-42" fill="#BF8D43" points="177.198433 61.2712253 173.342949 67.7883484 173.342949 73.0444346 171.958538 73.0444346 171.958538 67.7883484 168.118324 61.2712253 169.711415 61.2712253 172.643109 66.3445142 172.673648 66.3445142 175.590073 61.2712253"></polygon>
        <path d="M57.2600668,66.2864959 L58.2856509,69.6324823 C48.7627339,69.4576326 36.5575201,73.8182767 30.2207848,80.2082364 C34.1398901,77.5828425 45.2788019,71.3968741 56.8350729,72.0697803 C57.0386628,72.0803772 57.2447976,72.1015711 57.4509324,72.1174666 C58.8913308,72.2287345 60.3495434,72.4406735 61.8204803,72.7850743 L59.7362289,66.0480646 C58.8862411,66.1063478 58.0667918,66.1884741 57.2600668,66.2864959" id="Fill-43" fill="#BF8D43"></path>
        <path d="M30.7765852,79.4203533 C33.7031898,75.8677265 41.4752338,68.1796407 55.2786282,65.9463339 C55.4694938,65.914543 55.665449,65.8880507 55.8588594,65.8589091 C57.0447705,65.6840594 58.2739445,65.5410006 59.5489262,65.4509266 C59.5743749,65.4482773 59.5998236,65.4456281 59.6227275,65.4456281 L56.4467252,55.4500569 L53.8636785,47.3168993 C53.3826974,47.369884 52.061908,47.5950691 49.947118,48.5170036 L50.5960608,50.4429989 C51.1304843,50.2707985 51.680177,50.1171428 52.242594,49.9873302 L56.3780136,63.5381774 C47.3360777,64.6799986 35.6449284,70.060599 30.0742001,80.3078477 C30.237072,80.0932595 30.4304824,79.8442312 30.6518864,79.5713598 C30.6900595,79.5236735 30.7358672,79.4706888 30.7765852,79.4203533" id="Fill-44" fill="#BF8D43"></path>
        <path d="M29.542067,81.0528131 L29.5446119,81.0528131 C29.5446119,81.0475147 29.5446119,81.0448654 29.542067,81.0422162 L29.542067,81.0528131" id="Fill-46" fill="#BF8D43"></path>
        <path d="M29.905475,35.0196709 C30.086161,34.5534052 30.3635522,33.9864685 30.4653471,33.5466951 C30.5442382,33.1943466 30.7274691,32.6697977 30.8954308,32.2114797 C30.9463283,32.2830091 31.4832966,33.0247955 31.5927262,33.1943466 C31.7047006,33.3718455 32.3892716,34.4580327 32.5190601,34.6355316 C32.6488487,34.8156797 33.1272849,35.3746687 33.2977915,35.5389214 C33.4657531,35.7058233 33.7736828,35.8753745 33.8805675,35.9204115 C33.9899971,35.9627993 34.0612536,35.9892917 34.0230804,36.0184333 C33.9874522,36.0475749 31.4247645,36.7522719 29.9156545,36.4688036 C29.8596672,36.1773875 29.80368,35.9018668 29.7553274,35.7561588 C29.7196992,35.6395924 29.9003852,35.0461633 29.905475,35.0196709 L29.905475,35.0196709 Z M35.8019471,0.624626866 L0.2068,14.9437529 L0.344223175,17.2512383 C1.91441019,42.7633907 9.35562061,66.6224192 35.8019471,89.2813433 C41.6678808,84.2530914 46.5947561,79.1639072 50.7327205,74.0111412 C47.8697377,74.3184527 45.2052551,74.9012848 42.8257982,75.5874372 C38.1585001,76.9358988 34.5931321,78.6764475 32.7964514,79.5056587 C32.6361243,79.5798374 32.4859768,79.6513668 32.3536434,79.70965 L29.5441029,81.0528131 L29.5441029,81.0554624 L29.5441029,81.0528131 L29.541558,81.0528131 C29.541558,81.0528131 29.5441029,81.0448654 29.5441029,81.0422162 C29.4244938,79.6831576 29.7604172,77.810147 29.9538276,76.6789228 C29.5262888,76.2497464 29.0325833,75.7569884 28.6203138,75.327812 C28.4269034,74.6496073 28.2640315,72.9673418 27.68889,72.164623 C27.7219734,72.1036905 27.7321529,72.0401088 27.7168837,71.9712287 C27.709249,71.9261917 27.6812554,71.8944008 27.6379926,71.8811546 C27.6278131,71.8785054 27.6201785,71.8785054 27.609999,71.8758562 C27.5998195,71.8308191 27.58964,71.796379 27.5845502,71.7698867 C27.5870951,71.7566405 27.5845502,71.7460435 27.5769156,71.7380958 C27.5565566,71.6453725 27.528563,71.5394031 27.4929348,71.4228366 C27.5183835,71.3407103 27.5107489,71.2665316 27.4623963,71.192353 C27.4318578,71.147316 27.4064091,71.1022789 27.3784155,71.0519434 C27.3631462,70.9989587 27.3453321,70.945974 27.3300629,70.8929892 C27.2995244,70.744632 27.2791654,70.5353422 27.266441,70.3392987 C27.2689859,70.3419479 27.2766205,70.3445972 27.2817103,70.3472464 C27.2944346,70.2333292 27.2817103,70.1220613 27.2486269,70.0319872 C27.2359025,69.7273249 26.6174983,69.147142 26.6149534,69.1444928 C26.4800751,68.9140092 26.3630109,68.6861748 26.3451968,68.4848328 C26.3222929,68.230506 26.3222929,67.6503231 26.3299275,67.0913341 C26.3324724,67.0807372 26.4317225,65.8276481 26.4469917,64.105644 C26.4877097,63.7824371 26.5029789,63.4539317 26.4469917,63.1307248 C26.4266327,61.3504375 26.3019339,59.2681372 25.9074785,57.5461332 C25.8209528,57.1725908 25.7446066,56.7963991 25.6682604,56.4255059 C25.515568,55.0108134 25.3017986,53.2358246 25.3374268,53.1245566 C25.3526961,53.1113104 25.355241,53.0901165 25.3476063,53.0742211 C25.3730551,52.8728791 25.3450615,52.2873977 25.3247025,51.9271015 C25.3628756,51.8264305 25.3425166,51.7257595 25.3068884,51.6277377 L25.011683,49.9693153 C25.0142279,49.8474504 25.0473112,49.7282348 25.1211126,49.6196161 C25.2000037,49.5030496 25.2050934,49.3811847 25.1491062,49.2487229 C25.5130231,48.769211 26.159421,50.5627444 28.0477172,51.8396767 C28.2614866,52.0012801 28.4879804,52.1443389 28.7348331,52.2476592 C28.9002499,52.3191886 29.0529423,52.4092626 29.1954552,52.5099336 L29.1980001,52.5125829 C29.340513,52.6159031 29.4728464,52.7324695 29.5975453,52.8622822 C29.7375133,53.0026917 29.8825711,53.1298551 30.0505328,53.2305261 C30.2337637,53.3391448 30.3940907,53.4769051 30.5315139,53.6464563 C30.6714819,53.8186567 30.8139948,53.9882079 30.9539629,54.1604083 C31.4858415,54.9472317 31.6003608,55.6095409 31.4909312,55.6943165 C31.455303,55.6837196 31.4273094,55.7128612 31.4120401,55.744652 C31.3127901,55.9353971 31.1957259,56.1155452 31.1168348,56.3168872 C30.9590526,56.7195712 30.9259693,57.1381507 30.9336039,57.5593794 C30.9285141,57.8666909 30.7936358,58.4892616 30.6511229,58.918438 C30.5976806,58.9979151 30.5951357,59.0376536 30.5416934,59.2045556 C30.4297189,59.4429869 30.2592124,59.8562679 30.1243341,60.1874225 C30.0912507,60.2457057 30.065802,60.3119366 30.045443,60.3781675 C30.0479879,60.3781675 30.0479879,60.3781675 30.0479879,60.3755183 C30.0072699,60.4814878 30.0098148,60.4655924 30.0403533,60.3887645 C29.762962,60.6351435 29.4753913,60.8682764 29.139468,61.0298798 C29.0503974,61.0749169 28.9740512,61.1490955 28.8875255,61.199431 C28.6050445,61.3689822 28.3963649,61.6180105 28.2029545,61.8829342 C28.0884352,62.0418884 27.99173,62.2140888 27.8797556,62.3783415 C27.7754158,62.529348 27.749967,62.6988992 27.770326,62.876398 C27.7932299,63.0512477 27.7805055,63.2181496 27.7448773,63.3929993 C27.6914349,63.6367291 27.7117939,63.8751604 27.8263132,64.1029948 C27.8721209,64.1877704 27.9230184,64.2645982 27.9891851,64.3334784 C28.052807,64.3997093 28.1266083,64.4394479 28.2156789,64.407657 C28.3683713,64.3573215 28.4676214,64.4341494 28.5643266,64.5427681 C28.7093844,64.7043716 28.8009998,64.876572 28.7602818,65.1070556 C28.7399228,65.2368682 28.7984549,65.3428377 28.9078845,65.4143671 C29.0147692,65.4858965 29.1140193,65.5653736 29.220904,65.6316045 C29.3048848,65.68194 29.3939554,65.6898877 29.4804811,65.6263061 C29.521199,65.5945152 29.5670068,65.5733213 29.6128145,65.5547767 C29.6738915,65.5309335 29.7298787,65.5388812 29.7705967,65.5998137 C29.8367634,65.7004847 29.9258339,65.7799618 30.0199943,65.8541404 C30.045443,65.8726851 30.0708917,65.8991775 30.0912507,65.9256698 C30.3151996,66.251526 30.5544177,66.564136 30.7249243,66.9270814 C30.9183347,67.3350639 31.0710271,67.7562926 31.2313541,68.1775213 C31.2466233,68.2172598 31.254258,68.2596476 31.2618926,68.3020354 C31.2847964,68.431848 31.3051554,68.5590114 31.3306042,68.688824 C31.3789568,68.9484493 31.4832966,69.1868806 31.6410788,69.3935211 C31.6919762,69.6425494 32.1729573,70.0955689 32.7455539,70.4691113 C32.9211502,70.6068716 33.1018362,70.7419827 33.2825222,70.8770938 C33.4199454,70.980414 33.5650032,71.0572419 33.7176956,71.1155251 C31.857393,73.7197251 30.4780715,76.7716461 30.0759815,80.3083775 C30.6994755,77.4895894 32.4554383,74.1806923 35.3031519,71.0333988 C35.3184211,71.0201526 35.7459599,70.5565361 35.7459599,70.5512376 C39.7083281,66.3627939 45.6277041,62.5319972 53.4226519,60.6324943 L53.300498,60.2695488 L52.112042,56.761959 L51.9135419,56.1711792 L49.4093863,48.758614 L49.213431,48.1757819 L47.2895065,42.4905193 C46.032339,42.8137262 39.6676101,44.9834513 36.3440052,49.8712936 C38.1890385,47.6883223 41.3777652,45.9928106 45.8796466,44.9516605 L50.4044318,59.1277277 C50.4044318,59.1277277 41.7162334,62.1213655 35.6645239,68.7153164 C35.2929724,67.5734953 34.414991,66.2939138 34.152869,65.8276481 C34.13251,65.7852603 34.112151,65.7402232 34.0892472,65.7004847 C33.9365547,65.3136961 32.7913616,63.2817313 32.8269899,63.0777401 C32.865163,62.8737488 32.8855219,62.1875964 32.8855219,62.1875964 C32.8855219,62.1875964 32.8702527,62.1690518 32.8473488,62.1399102 C32.8753425,62.1187163 32.8982463,62.0895747 32.9160604,62.0524853 C32.9796823,61.9279712 33.066208,61.8220017 33.1476439,61.713383 C33.2392594,61.5968166 33.3156056,61.4723024 33.2901568,61.310699 C33.2774325,61.2365203 33.3156056,61.1755879 33.3537787,61.1173047 C33.6260802,60.6881283 33.9238304,60.2801458 34.2979268,59.9383942 C34.4429846,59.8059324 34.5829526,59.668172 34.7254656,59.5330609 C34.8679785,59.4005991 35.0054017,59.2601895 35.1377351,59.1144815 C35.2751583,58.963475 35.4278507,58.8283639 35.5779982,58.6879543 C35.8630241,58.4203814 36.1276909,58.1316146 36.3719988,57.8190046 C36.4636142,57.7156844 36.5501399,57.6070656 36.6315759,57.4904992 C36.6366656,57.4852007 36.6392105,57.4825515 36.6417554,57.477253 C36.669749,57.4454622 36.6926529,57.4110221 36.710467,57.376582 C37.1354609,56.7381159 37.4306662,55.9036062 37.5731791,54.8094714 C37.5986279,54.7167481 37.6037176,54.6213755 37.6062625,54.5233538 C37.75641,53.0026917 36.2651141,50.1574112 35.6696137,48.3877209 C35.0715684,46.6206798 32.9058809,44.4138653 32.541964,43.9528981 C32.2900215,43.5846542 32.0482585,43.2084625 31.8039507,42.8375693 C31.6868865,42.6574212 31.5672774,42.4772731 31.455303,42.2944757 C31.3993158,42.2070509 30.9107,41.4732123 30.8648923,41.4281752 C30.6994755,41.2215348 30.368642,40.9831034 30.2617573,40.8479923 C30.2719368,40.7844106 30.2643021,40.7155305 30.2388534,40.6360534 C30.1752316,40.4426591 30.2210393,40.3949728 30.4042702,40.3446373 C30.7147448,40.2651602 31.0201296,40.1830338 31.3280593,40.0982583 C31.7072455,39.9922888 32.0838868,39.8730731 32.4528934,39.7273651 C32.5445089,39.6876265 32.6412141,39.6584849 32.7379193,39.6319925 C33.2545286,39.5021799 33.7405995,39.2955394 34.2266703,39.0809513 C34.5498693,38.9405417 34.8705234,38.7895352 35.1911774,38.6385287 C35.3362352,38.5722977 35.4863828,38.519313 35.6416201,38.4848729 C36.0691588,38.3895004 36.5017873,38.3524111 36.9344159,38.2941279 C37.272884,38.2490908 37.6138971,38.2040538 37.957455,38.2384939 C38.0668846,38.2464416 38.1737693,38.2225985 38.280654,38.1934569 C38.5071477,38.1351736 38.7336415,38.0689427 38.9601352,38.0133087 C39.0492058,37.9921148 39.1204623,37.9762194 39.1815392,37.9629732 C39.2909688,37.9709209 39.3953086,37.9762194 39.4945587,37.9815179 C39.5607254,38.015958 39.6345267,38.0795397 39.7719499,38.172263 C39.8279371,38.2093523 39.8839244,38.2464416 39.9424564,38.2835309 C40.2656554,38.4795744 40.6219377,38.519313 40.9858546,38.4848729 C41.6933295,38.4239405 42.3651761,38.2199492 43.0064843,37.9020408 C43.2406126,37.7854744 43.4467474,37.6185724 43.6452475,37.446372 C43.8182989,37.2953655 43.9837157,37.1337621 44.1542223,36.9801063 C44.3730814,36.7787643 44.5461328,36.540333 44.6861008,36.2780585 C44.7115496,36.2462677 44.7344534,36.2144768 44.7573573,36.1800367 C44.8337035,36.2144768 44.9075049,36.2542154 44.9863959,36.283357 C45.1136396,36.3310432 45.2332487,36.3098493 45.3324987,36.2091783 C45.4012103,36.1402982 45.4190244,36.0661195 45.3757616,35.9733962 C45.3146846,35.8515313 45.2637872,35.7217187 45.1721717,35.6157492 C45.1543576,35.5972046 45.1441781,35.5786599 45.1339986,35.5601153 C45.2790564,35.2898931 45.408845,35.0064247 45.5233643,34.7229564 C45.5437233,34.7335533 45.5589925,34.752098 45.5793515,34.7600457 C45.6556977,34.797135 45.729499,34.8395228 45.8083901,34.8633659 C46.0705121,34.9348953 46.2919161,34.696464 46.2232045,34.4235926 C46.1824865,34.2540414 46.0756018,34.1851613 45.9127299,34.1321765 C45.8465632,34.1109826 45.8058452,34.0897887 45.7600375,34.0791918 C45.8363837,33.8513574 45.9025504,33.6314707 45.9585376,33.422181 C45.9839864,33.4301287 46.0221595,33.4407257 46.0883262,33.4513226 C46.3453584,33.5255012 46.5616727,33.3082638 46.4980509,33.0380416 C46.454788,32.8711397 46.3097302,32.6830439 46.1392237,32.6274099 C46.1824865,32.3810309 46.2053904,32.1823381 46.2028455,32.0498762 C46.2206596,32.00219 46.2257494,31.946556 46.253743,31.9068174 C46.4293393,31.7372663 46.3784418,31.5120811 46.2359289,31.3133883 C46.2308391,31.3001422 46.192666,31.231262 46.1799417,31.231262 C46.1672173,31.0140246 46.1570378,30.8550703 46.151948,30.8047348 L46.151948,30.7994364 L46.151948,30.7888394 C46.0170697,29.0827308 44.642838,27.6044565 43.5078244,27.76606 C42.2532017,27.9462081 41.3345023,28.7065391 40.9604059,29.0350445 C40.8738802,29.08538 40.7848096,29.1383648 40.7110083,29.2045957 C40.5506812,29.3450053 40.3878093,29.4801163 40.2580208,29.6576152 C40.2249374,29.7053015 40.1791297,29.7476893 40.1358668,29.7847786 C39.7592256,30.0973886 39.5352767,30.526565 39.306238,30.9530921 C39.1739046,31.2021204 39.0492058,31.4590964 38.9295968,31.7187216 C38.8939685,31.790251 38.9117826,31.8617804 38.9016031,31.9041682 C38.8736095,31.9280113 38.8507057,31.9412575 38.8328916,31.9439068 C38.5529555,31.9836453 37.3390508,32.1214056 37.1481852,32.1055102 C36.9700441,32.092264 35.964819,31.6233491 35.6517996,31.3186868 C35.6365303,31.2948437 35.6543444,31.3133883 35.5932675,31.2524559 C35.5652739,31.1173448 35.5169213,30.9875322 35.4329404,30.8762642 C35.3362352,30.7464516 35.2649788,30.6060421 35.2013569,30.460334 C35.1326453,30.2775367 35.0003119,29.9198897 35.0003119,29.9198897 C34.9875875,29.8775019 34.9163311,29.654966 34.8603439,29.609929 C34.8603439,29.609929 34.5167859,29.1489617 34.2750229,28.7091884 C34.0154458,28.2429227 33.648984,27.1302431 33.4428493,26.4705831 C33.4250352,26.3301735 33.3741377,26.1977117 33.3206953,26.0652498 C33.1934517,25.6281257 32.5343294,24.7406313 32.1347842,24.1339561 C32.1169701,24.1074637 32.1017009,24.0756728 32.0813419,24.0544789 C31.9897264,23.9193679 31.9235597,23.8345923 31.8726623,23.7763091 C31.8624828,23.7604136 31.8497584,23.7471675 31.837034,23.7365705 L31.8344891,23.7365705 C31.717425,23.6173548 31.6614377,23.6358995 31.4451235,23.4451544 C31.414585,23.3948189 31.3840465,23.3418342 31.3356939,23.3047449 C31.1855464,23.18288 31.0353988,23.0583658 30.8776167,22.9417994 C30.7198345,22.8225837 30.5366036,22.7590021 30.348283,22.7086666 C30.1726867,22.658331 29.9970904,22.6053463 29.8113146,22.5973986 C29.8011351,22.5947494 29.7935005,22.5921001 29.7858659,22.5921001 C29.7324236,22.5762047 29.6967953,22.5205707 29.7171543,22.4728845 C29.8011351,22.2768409 29.8164044,22.0463573 29.9996353,21.9006493 C30.065802,21.8476645 30.10652,21.7708367 30.1421482,21.6913595 C30.1650521,21.6330763 30.1879559,21.5774423 30.2083149,21.5191591 C30.3202894,21.2118476 30.4297189,20.9018869 30.5951357,20.6157693 C30.7223794,20.3958826 30.770732,20.1495036 30.7758217,19.8925276 C30.7783666,19.8024536 30.7732769,19.7415211 30.6765717,19.7150287 C30.6282191,19.6991333 30.6282191,19.6117085 30.5442382,19.617007 C30.3584625,19.6249547 30.3635522,19.6143577 30.4017253,19.4421573 C30.4780715,19.1189504 30.6562127,18.8381313 30.7605525,18.5281706 C30.7834563,18.4539919 30.8292641,18.387761 30.8750718,18.3268285 C30.9870462,18.1784713 31.0099501,18.0115693 30.9870462,17.8340705 C30.971777,17.7122056 30.9565078,17.5903407 30.9437834,17.4684758 C30.9361488,17.3916479 30.9259693,17.3121708 30.9336039,17.2353429 C30.9463283,17.0657917 30.9132449,16.9094867 30.8470782,16.7531818 C30.81145,16.6657569 30.7783666,16.5756829 30.7580076,16.4829596 C30.730014,16.353147 30.6536678,16.2471775 30.6027703,16.1279618 C30.5645972,16.0352385 30.5747767,16.0166939 30.6765717,16.0060969 C30.7656422,15.9955 30.791091,15.9531122 30.7554627,15.8709858 C30.7249243,15.794158 30.6765717,15.738524 30.6078601,15.6987854 C30.5569626,15.6696438 30.5035203,15.6458007 30.4526228,15.6113606 C30.3457381,15.5424804 30.2592124,15.4577049 30.20577,15.3278923 C30.1650521,15.224572 30.0963405,15.1318487 30.0352635,15.0417747 C29.9920007,14.9755437 29.9411032,14.9172605 29.9283788,14.8377834 C29.9131096,14.7424109 29.8545775,14.6788292 29.783321,14.6337922 C29.5695516,14.4986811 29.3557823,14.3662192 29.119109,14.2867421 C29.0631218,14.2655482 28.7755511,14.1383848 28.6203138,14.0880493 C28.4650765,14.0403631 28.3861854,14.0032737 28.1775058,13.9158489 C28.1393327,13.8628642 28.0553518,13.849618 27.9968198,13.8893566 C27.9052043,13.8787596 27.8695761,13.8734611 27.8568517,13.8549165 C27.8772107,13.8231256 27.8975697,13.7886856 27.8644863,13.7568947 C27.8823004,13.6429775 27.6659862,13.6906638 27.6659862,13.6906638 C27.58964,13.6085374 27.5107489,13.5317096 27.4394924,13.446934 C27.3911398,13.3833523 27.3376975,13.3621584 27.266441,13.3833523 C27.1748256,13.4071954 27.085755,13.4257401 26.9941396,13.4071954 C26.9610562,13.3992477 26.9152485,13.4124939 26.8948895,13.3939492 C26.782915,13.290629 26.6785752,13.3542107 26.5691457,13.3965985 C26.4037289,13.4628294 26.2637608,13.5582019 26.1365171,13.6959623 C25.999094,13.8443195 25.8260426,13.9582367 25.6657155,14.0827509 C25.6071834,14.1304371 25.5410167,14.1728249 25.5002987,14.2390558 C25.4188628,14.3688685 25.2967089,14.3821146 25.1669203,14.3503238 C25.093119,14.3317791 25.0269523,14.2946898 24.9556958,14.2681974 C24.9022535,14.2470036 24.8589906,14.2708467 24.8259072,14.3158837 C24.7877341,14.3609207 24.7851893,14.408607 24.8208175,14.4562933 C24.8360867,14.4774872 24.8564457,14.4933826 24.871715,14.5145765 C24.9607855,14.6311429 24.950606,14.6920754 24.8182726,14.7556571 C24.6833943,14.821888 24.5408814,14.8722235 24.4009134,14.9305067 C24.3322018,14.9596483 24.2533107,14.978193 24.2202273,15.0603193 C24.1922337,15.1318487 24.1515157,15.1133041 24.0980734,15.0921102 C24.0344516,15.0629686 23.986099,15.0947594 23.9479258,15.1477441 C23.9224771,15.1821842 23.9072079,15.2219228 23.8893938,15.2616613 C23.8003232,15.4603541 23.7010731,15.6510992 23.5280217,15.783561 C23.482214,15.8206503 23.4643999,15.8789335 23.4898486,15.9239706 C23.5712846,16.0670294 23.5382012,16.2100882 23.5127525,16.3557962 C23.4873037,16.4935565 23.4694896,16.6286676 23.522932,16.7664279 C23.5534704,16.8379573 23.5483807,16.9200837 23.5331115,16.9969116 C23.5076627,17.1187765 23.522932,17.2406414 23.5280217,17.3625063 C23.5331115,17.5135128 23.5840089,17.6327284 23.723977,17.6989594 C23.8003232,17.7360487 23.8283168,17.7916827 23.8334065,17.8817567 C23.8410412,18.019517 23.8664899,18.1572774 23.843586,18.2976869 C23.823227,18.4222011 23.8614001,18.5387675 23.9148425,18.6500355 C23.9199322,18.6632816 23.9199322,18.6871248 23.9148425,18.700371 C23.8995733,18.7268633 23.8741245,18.7268633 23.8486758,18.7136171 C23.8181373,18.700371 23.7901437,18.6791771 23.7596052,18.6685801 C23.7367013,18.6606324 23.6985282,18.6500355 23.6883487,18.6632816 C23.5992782,18.7480572 23.4593101,18.7666019 23.4160473,18.9096607 C23.3447908,19.1639874 23.2964382,19.4183142 23.3193421,19.6832379 C23.3397011,19.9243185 23.3575152,20.1680483 23.3880537,20.4091288 C23.4058678,20.5468892 23.4440409,20.6820002 23.4745794,20.8171113 C23.4949383,20.9018869 23.5152973,20.9018869 23.601823,20.8224098 C23.6145474,20.8091636 23.6272718,20.8065144 23.642541,20.8224098 C23.6476308,20.8277083 23.6527205,20.835656 23.6527205,20.8436037 C23.6756244,21.0581919 23.7290667,21.2754293 23.6323615,21.4847191 L23.5789192,21.5350546 C23.4160473,21.5853901 23.3117074,21.6887103 23.2760792,21.8688584 C23.2557202,21.9880741 23.1946433,22.0702004 23.0673996,22.0940436 C22.9935982,22.109939 22.9274315,22.154976 22.8612648,22.1894161 C22.8612648,22.1894161 19.7590639,22.5894509 18.3008513,28.4310185 C17.1760172,32.9347214 17.5322995,35.411758 17.4483187,37.2158884 C17.3897866,37.7086465 17.3159852,38.2702847 17.2065557,38.6888642 C16.5627027,40.5777702 15.7814265,42.9196957 16.234414,45.6007235 C16.2267793,45.7225884 16.2471383,45.8444533 16.2904012,45.9716167 C16.8859016,48.8063003 16.8859016,50.692557 18.4331848,53.9590663 C18.6724029,54.4624213 19.3289803,56.0413666 19.3722431,56.1420376 C20.1051667,58.036242 20.3443848,59.2045556 20.9068019,60.1688778 C21.6575396,61.456407 22.0061873,62.0286422 21.8993026,62.4551694 C21.85095,62.584982 21.7924179,62.7121453 21.7593346,62.8472564 C21.629546,63.345313 21.649905,63.8460188 21.769514,64.3440753 C21.810232,64.5136265 21.8458603,64.6831777 21.891668,64.8500796 C21.912027,64.9348552 21.9374757,65.0196308 21.9731039,65.0964587 C22.1792387,65.5653736 22.4235466,66.0104454 22.6703993,66.4555172 C22.9325213,66.9297307 23.1895535,67.4092426 23.4898486,67.8622621 C23.502573,67.883456 23.5178422,67.9046499 23.5254768,67.928493 C23.6450859,68.3046847 23.8893938,68.6119962 24.0471759,68.9669939 C24.0878939,69.0650157 24.1286119,69.1603882 24.1438811,69.2637085 C24.1718747,69.459752 24.2558556,69.6293032 24.3805544,69.772362 C24.4950737,69.9021746 24.2533107,70.3260525 24.2354966,70.4717605 C11.4984042,55.0505519 7.06268949,38.6570733 6.01929131,21.6860611 L5.90222713,19.7468196 L35.7994022,7.71928357 L65.6863978,19.7468196 L65.5693336,21.6860611 C64.8745831,32.9850569 62.8056009,43.8946149 57.7514819,54.4783167 L59.7084897,60.6377928 C67.3609247,46.6842615 70.3206127,32.2538675 71.2444018,17.2512383 L71.381825,14.9437529 L35.8019471,0.624626866 Z" id="Fill-47" fill="#BF8D43"></path>
        <path d="M29.5443574,81.0549325 L29.5443574,81.0522833 L29.5443574,81.0549325 Z" id="Fill-48" fill="#BF8D43"></path>
    </g>
</svg>