
<svg width="22px" height="20px" viewBox="84 0 22 20" version="1.1" xmlns="http://www.w3.org/2000/svg" xmlns:xlink="http://www.w3.org/1999/xlink">
    <!-- Generator: Sketch 41.2 (35397) - http://www.bohemiancoding.com/sketch -->
    <desc>Created with Sketch.</desc>
    <defs>
        <rect id="path-1" x="0" y="0" width="22" height="20"></rect>
    </defs>
    <g id="Group-24" stroke="none" stroke-width="1" fill="none" fill-rule="evenodd" transform="translate(84.000000, 0.000000)">
        <g id="Fill-8-+-Fill-10-Mask">
            <mask id="mask-2" fill="white">
                <use xlink:href="#path-1"></use>
            </mask>
            <use id="Mask" fill="#FFFFFF" xlink:href="#path-1"></use>
            <path d="M18.5094726,21.3848018 C18.5094726,22.2697366 18.484883,23.156157 18.5200798,24.0401013 C18.5374372,24.4753882 18.3817031,24.6769374 18.0027342,24.845803 C16.0481033,25.716872 13.9796853,26.0749066 11.8818562,26.1977179 C8.51452946,26.3948103 5.22338226,25.8733574 2.01371819,24.8240139 C1.79771556,24.7536945 1.47467591,24.5095575 1.47322946,24.3436632 C1.458765,22.3410464 1.30399526,20.3121836 1.56146268,18.3412601 C1.99250364,15.0412012 4.24028101,12.9098306 7.49044557,12.7063005 C9.59647121,12.5740803 11.7719263,12.5859653 13.8340764,12.9821308 C16.6343962,13.5199255 18.4607755,16.1742346 18.5051332,19.1197254 C18.5162226,19.8744207 18.5065797,20.6296113 18.5065797,21.3848018 L18.5094726,21.3848018 Z" id="Fill-8" fill="#C59855" mask="url(#mask-2)"></path>
            <path d="M9.99168852,12.2973587 C7.24922656,12.290921 4.94841284,9.916899 4.97107383,7.11848469 C4.99469912,4.27896821 7.25645879,1.99111223 10.0317069,2.00002596 C12.7630794,2.00943489 14.9881958,4.307195 14.9901244,7.12096073 C14.992053,9.97780946 12.745722,12.3042916 9.99168852,12.2973587 Z" id="Fill-10" fill="#C59855" mask="url(#mask-2)"></path>
        </g>
    </g>
</svg>