
<svg width="20px" height="20px" viewBox="0 0 20 20" version="1.1" xmlns="http://www.w3.org/2000/svg" xmlns:xlink="http://www.w3.org/1999/xlink">
    <!-- Generator: Sketch 41.2 (35397) - http://www.bohemiancoding.com/sketch -->
    <desc>Created with Sketch.</desc>
    <defs></defs>
    <path d="M3.01013519,7.89177733 C3.01457895,5.19578185 5.19509819,3.01526261 7.89041002,3.01081885 C10.5846964,3.01662992 12.7658993,5.19578185 12.7706849,7.89177733 C12.7652156,10.5857219 10.5846964,12.7676084 7.89041002,12.7713685 C5.19407271,12.7676084 3.0138953,10.5857219 3.01013519,7.89177733 L3.01013519,7.89177733 Z M19.9955562,17.3378455 L14.6326206,11.9735425 C15.3545608,10.7829565 15.7774018,9.38727375 15.7774018,7.89246099 C15.7774018,3.532448 12.2490557,0.00170913876 7.88870088,0 C3.53142252,0.00170913876 0,3.532448 0,7.89177733 C0,12.248372 3.532448,15.7791109 7.89109368,15.7791109 C9.3865901,15.7791109 10.77988,15.3559281 11.9704661,14.6343298 L17.3361363,20 L19.9955562,17.3378455 L19.9955562,17.3378455 Z" id="Fill-2" stroke="none" fill="#B58846" fill-rule="evenodd"></path>
</svg>